<svg width="189" height="189" viewBox="0 0 189 189" fill="none" xmlns="http://www.w3.org/2000/svg">
<g clip-path="url(#clip0_202_8)">
<path d="M189 0H0V189H189V0Z" fill="black"/>
<path fill-rule="evenodd" clip-rule="evenodd" d="M15.7614 22.6556V167.652H172.426V22.6556H15.7614ZM8 15H181V175.874H8V15Z" fill="#7FDEF0"/>
<path fill-rule="evenodd" clip-rule="evenodd" d="M94.565 66.8535C79.554 66.8535 67.3857 79.8248 67.3857 95.8258C67.3857 111.826 79.554 124.798 94.565 124.798C96.442 124.798 98.274 124.595 100.043 124.209L104.406 122.765L91.254 110.973L106.132 94.2407L119.789 106.485L121.193 101.664C121.555 99.7785 121.745 97.8259 121.745 95.8258C121.745 79.8248 109.576 66.8535 94.565 66.8535ZM94.565 39.9806C126.358 39.9806 152.131 64.9834 152.131 95.8258C152.131 103.536 150.52 110.882 147.607 117.563L142.441 126.795L154 137.159L139.121 153.891L126.282 142.38L116.973 147.282C110.086 150.108 102.514 151.67 94.565 151.67C62.7729 151.67 37 126.668 37 95.8258C37 64.9834 62.7729 39.9806 94.565 39.9806Z" fill="#7FDEF0"/>
</g>
<defs>
<clipPath id="clip0_202_8">
<rect width="189" height="189" fill="white"/>
</clipPath>
</defs>
</svg>